# Blender 4.0.2
# www.blender.org
mtllib base_Ring_Fixed.mtl
o Base_Ring
v 0.000000 5.969304 -6.000000
v 0.000000 10.969303 -6.000000
v 4.242640 5.969304 -4.242640
v 4.242640 10.969303 -4.242640
v 6.000000 5.969304 -0.000000
v 6.000000 10.969304 -0.000001
v 4.242640 5.969305 4.242640
v 4.242640 10.969305 4.242640
v 0.000000 5.969306 6.000000
v 0.000000 10.969305 6.000000
v -4.242640 5.969305 4.242640
v -4.242640 10.969305 4.242640
v -6.000000 5.969304 -0.000000
v -6.000000 10.969304 -0.000001
v -4.242640 5.969304 -4.242640
v -4.242640 10.969303 -4.242640
vn -0.3827 -0.0000 0.9239
vn -0.9239 -0.0000 0.3827
vn -0.9239 -0.0000 -0.3827
vn -0.3827 -0.0000 -0.9239
vn 0.3827 -0.0000 -0.9239
vn 0.9239 -0.0000 -0.3827
vn 0.9239 -0.0000 0.3827
vn 0.3827 -0.0000 0.9239
vt 1.000000 0.500000
vt 0.875000 0.500000
vt 0.875000 1.000000
vt 1.000000 1.000000
vt 0.750000 0.500000
vt 0.750000 1.000000
vt 0.625000 0.500000
vt 0.625000 1.000000
vt 0.500000 0.500000
vt 0.500000 1.000000
vt 0.375000 0.500000
vt 0.375000 1.000000
vt 0.250000 0.500000
vt 0.250000 1.000000
vt 0.125000 0.500000
vt 0.125000 1.000000
vt 0.000000 0.500000
vt 0.000000 1.000000
s 0
f 1/1/1 3/2/1 4/3/1 2/4/1
f 3/2/2 5/5/2 6/6/2 4/3/2
f 5/5/3 7/7/3 8/8/3 6/6/3
f 7/7/4 9/9/4 10/10/4 8/8/4
f 9/9/5 11/11/5 12/12/5 10/10/5
f 11/11/6 13/13/6 14/14/6 12/12/6
f 13/13/7 15/15/7 16/16/7 14/14/7
f 15/15/8 1/17/8 2/18/8 16/16/8
o Platform_Ring.001
v 0.000000 10.940278 -6.000001
v 0.000000 11.908523 -6.000001
v 4.242640 10.940278 -4.242641
v 4.242640 11.908523 -4.242641
v 6.000000 10.940278 -0.000001
v 6.000000 11.908523 -0.000001
v 4.242640 10.940278 4.242639
v 4.242640 11.908523 4.242639
v 0.000000 10.940278 5.999999
v 0.000000 11.908523 5.999999
v -4.242640 10.940278 4.242639
v -4.242640 11.908523 4.242639
v -6.000000 10.940278 -0.000001
v -6.000000 11.908523 -0.000001
v -4.242640 10.940278 -4.242641
v -4.242640 11.908523 -4.242641
vn -0.3827 -0.0000 0.9239
vn -0.9239 -0.0000 0.3827
vn -0.9239 -0.0000 -0.3827
vn -0.3827 -0.0000 -0.9239
vn 0.3827 -0.0000 -0.9239
vn 0.9239 -0.0000 -0.3827
vn 0.9239 -0.0000 0.3827
vn 0.3827 -0.0000 0.9239
vt 1.000000 0.500000
vt 0.875000 0.500000
vt 0.875000 1.000000
vt 1.000000 1.000000
vt 0.750000 0.500000
vt 0.750000 1.000000
vt 0.625000 0.500000
vt 0.625000 1.000000
vt 0.500000 0.500000
vt 0.500000 1.000000
vt 0.375000 0.500000
vt 0.375000 1.000000
vt 0.250000 0.500000
vt 0.250000 1.000000
vt 0.125000 0.500000
vt 0.125000 1.000000
vt 0.000000 0.500000
vt 0.000000 1.000000
s 0
f 17/19/9 19/20/9 20/21/9 18/22/9
f 19/20/10 21/23/10 22/24/10 20/21/10
f 21/23/11 23/25/11 24/26/11 22/24/11
f 23/25/12 25/27/12 26/28/12 24/26/12
f 25/27/13 27/29/13 28/30/13 26/28/13
f 27/29/14 29/31/14 30/32/14 28/30/14
f 29/31/15 31/33/15 32/34/15 30/32/15
f 31/33/16 17/35/16 18/36/16 32/34/16
