# Blender 4.0.2
# www.blender.org
mtllib switch_Room_Vent_Down_Fixed.mtl
o Switch_Room
v 0.691588 0.000000 -5.713530
v 3.551050 0.000000 -4.529110
v 3.551052 4.251430 -4.529106
v 0.691588 4.251430 -5.713535
v 4.992367 4.251430 -10.779523
v 1.897541 4.251428 -10.817543
v 1.149032 -0.000003 -10.826738
v 1.149027 4.999998 -10.826738
v 5.740880 5.000000 -10.770329
v 5.740884 0.000000 -10.770328
v 1.897547 -0.000003 -10.817539
v 4.992366 0.000000 -10.779528
v 4.910014 4.251431 -9.153460
v 4.320737 4.251431 -6.387284
v 3.542451 4.251430 -8.266233
v 4.816812 4.251431 -8.256679
v 4.601121 4.251431 -7.244188
v 1.461274 4.251430 -7.571712
v 1.962391 4.251429 -10.337573
v 3.340225 4.251430 -8.349998
v 1.729847 4.251430 -8.428576
v 1.913269 4.251429 -9.440951
v 1.962396 -0.000002 -10.337567
v 1.461276 -0.000001 -7.571707
v 1.913272 -0.000002 -9.440945
v 1.729850 -0.000001 -8.428570
v 4.320736 0.000001 -6.387288
v 4.910014 0.000001 -9.153463
v 4.601120 0.000001 -7.244192
v 4.816811 0.000001 -8.256682
v 1.156519 -0.000003 -11.436102
v 1.156514 4.999998 -11.436102
v 5.748367 4.999999 -11.379692
v 5.748371 0.000000 -11.379691
v 1.206710 -0.000004 -15.521172
v 1.206705 4.999997 -15.521172
v 5.798557 4.999998 -15.464762
v 5.798561 -0.000001 -15.464762
v -3.162477 0.752548 -12.066069
v -3.162480 2.781486 -12.066069
v -3.137555 0.752547 -14.094456
v -3.137558 2.781485 -14.094456
v 1.905033 -0.000003 -11.426903
v 4.999853 -0.000000 -11.388890
v 1.897541 4.251428 -10.817543
v 4.992367 4.251430 -10.779523
v 3.444954 4.999999 -10.798536
v 3.444954 4.999999 -10.798533
v 1.933947 -0.000003 -15.512238
v 5.071323 -0.000001 -15.473696
v 1.883752 4.999998 -11.427168
v 5.021129 4.999999 -11.388626
v 5.071320 4.999998 -15.473696
v 1.933943 4.999997 -15.512238
v -3.175110 -0.000007 -11.489322
v -3.175115 4.999994 -11.489322
v -3.124920 -0.000008 -15.574391
v -3.124924 4.999993 -15.574391
v -4.433790 0.793351 -12.066069
v -4.433790 2.747391 -12.066069
v -4.433790 0.786642 -14.094456
v -4.433790 2.740682 -14.094456
v -5.515196 -3.466021 -1.145958
v -5.515200 -1.437083 -1.145959
v -4.742051 -3.466022 -3.021384
v -4.742055 -1.437083 -3.021385
v -6.384671 -3.466021 -1.491964
v -6.384675 -1.437083 -1.491966
v -5.611526 -3.466022 -3.367390
v -5.611530 -1.437083 -3.367391
v -12.947701 -1.404557 -6.740344
v -12.947704 0.624381 -6.740347
v -11.147596 -1.404558 -7.675542
v -11.147598 0.624380 -7.675548
v -10.584882 -0.202949 -10.700713
v -10.584882 1.751091 -10.700713
v -11.882556 -0.209658 -12.259686
v -11.882556 1.744382 -12.259686
v -10.845714 1.626103 -10.411810
v -11.301188 0.765549 -8.107309
v -11.301756 -1.253447 -8.108904
v -10.846947 -0.336876 -10.410443
v -13.152742 -1.065882 -8.423992
v -12.676744 -0.542199 -10.840769
v -13.152933 0.942119 -8.425544
v -12.677571 1.432361 -10.839296
v -8.728052 -2.924867 -2.613696
v -11.202552 -2.152767 -4.572664
v -11.202555 -0.123829 -4.572666
v -8.728056 -0.895929 -2.613698
v -7.492261 -2.971749 -4.242376
v -9.943571 -2.053841 -6.164588
v -7.492266 -0.942811 -4.242378
v -9.943574 -0.024903 -6.164592
v -9.851056 0.053560 -11.111056
v -6.255368 0.723224 -12.066069
v -6.255368 2.677263 -12.066069
v -9.851056 2.007600 -11.111056
v -9.907245 0.241199 -13.228898
v -6.255368 0.716515 -14.094456
v -9.907245 2.195238 -13.228898
v -6.255368 2.670554 -14.094456
vn 0.9239 -0.0000 0.3827
vn -0.9987 -0.0000 -0.0506
vn -0.0000 -1.0000 -0.0000
vn -0.9239 -0.0000 -0.3827
vn 0.9910 -0.0000 -0.1339
vn -0.0123 -0.0000 0.9999
vn 0.9985 -0.0000 0.0547
vn 0.9840 -0.0000 0.1783
vn 0.9542 -0.0000 0.2991
vn -0.9946 -0.0000 -0.1034
vn -0.9781 -0.0000 -0.2084
vn -0.9504 -0.0000 -0.3110
vn 0.0123 -0.0000 -0.9999
vn -0.9999 -0.0000 -0.0123
vn 0.9999 -0.0000 0.0123
vn -0.0000 1.0000 -0.0000
vn 0.9998 -0.0000 0.0219
vn 0.9999 -0.0074 0.0123
vn 1.0000 -0.0000 0.0085
vn 0.9999 0.0025 0.0123
vn -0.0000 -0.0000 1.0000
vn -0.0000 -0.0000 -1.0000
vn 0.0292 -0.9996 0.0018
vn 0.0292 0.9996 -0.0015
vn -0.3697 -0.0000 0.9291
vn 0.3697 -0.0000 -0.9291
vn 0.4405 -0.0000 0.8978
vn -0.1936 0.9738 0.1192
vn 0.1623 0.9586 0.2340
vn -0.7821 -0.0000 0.6232
vn -0.1623 -0.9586 -0.2340
vn -0.4218 -0.0000 0.9067
vn 0.4318 -0.0000 -0.9020
vn -0.1931 -0.9763 -0.0977
vn 0.1931 0.9763 0.0977
vn 0.0385 -0.9993 0.0033
vn 0.1936 -0.9738 -0.1192
vn -0.0385 0.9993 -0.0033
vn -0.0807 -0.9769 -0.1981
vn 0.0858 0.9738 0.2107
vn 0.9927 -0.0000 -0.1209
vn -0.9422 -0.0000 0.3352
vn -0.1685 0.9724 0.1613
vn 0.8726 -0.0000 0.4884
vn -0.7422 -0.0000 -0.6701
vn 0.0580 -0.9627 -0.2642
vn 0.9811 0.0003 0.1933
vn -0.0614 0.9579 0.2803
vn -0.9811 0.0005 -0.1937
vn 0.1586 -0.9757 -0.1515
vn 0.6207 -0.0000 -0.7840
vn 0.1981 0.9655 0.1690
vn -0.6171 -0.0000 0.7869
vn -0.1981 -0.9655 -0.1690
vn 0.7789 -0.0000 -0.6271
vn -0.2567 -0.0000 -0.9665
vn -0.1448 0.9884 0.0451
vn 0.2306 -0.0000 0.9730
vn 0.1448 -0.9884 -0.0451
vn -0.4881 -0.0000 -0.8728
vt 0.000000 0.000000
s 0
f 4/1/1 1/1/1 24/1/1 18/1/1
f 28/1/2 13/1/2 5/1/2 12/1/2
f 3/1/3 4/1/3 18/1/3 20/1/3 15/1/3 14/1/3
f 8/1/3 32/1/3 51/1/3 47/1/3
f 2/1/4 3/1/4 14/1/4 27/1/4
f 19/1/5 23/1/5 11/1/5 6/1/5
f 13/1/3 16/1/3 15/1/3
f 16/1/3 17/1/3 15/1/3
f 17/1/3 14/1/3 15/1/3
f 18/1/3 21/1/3 20/1/3
f 21/1/3 22/1/3 20/1/3
f 22/1/3 19/1/3 20/1/3
f 35/1/6 49/1/6 54/1/6 36/1/6
f 23/1/7 19/1/7 22/1/7 25/1/7
f 25/1/8 22/1/8 21/1/8 26/1/8
f 26/1/9 21/1/9 18/1/9 24/1/9
f 13/1/10 28/1/10 30/1/10 16/1/10
f 16/1/11 30/1/11 29/1/11 17/1/11
f 17/1/12 29/1/12 27/1/12 14/1/12
f 46/1/13 48/1/13 9/1/13 5/1/13
f 33/1/14 37/1/14 38/1/14 34/1/14
f 50/1/6 38/1/6 37/1/6 53/1/6
f 7/1/15 31/1/15 32/1/15 8/1/15
f 8/1/13 6/1/13 11/1/13 7/1/13
f 10/1/13 12/1/13 5/1/13 9/1/13
f 9/1/14 33/1/14 34/1/14 10/1/14
f 38/1/16 50/1/16 44/1/16 34/1/16
f 35/1/16 57/1/16 55/1/16 31/1/16
f 36/1/6 58/1/6 57/1/6 35/1/6
f 32/1/3 56/1/3 58/1/3 36/1/3
f 31/1/13 55/1/13 56/1/13 32/1/13
f 27/1/16 24/1/16 1/1/16 2/1/16
f 26/1/16 24/1/16 27/1/16 29/1/16
f 25/1/16 26/1/16 29/1/16 30/1/16
f 23/1/16 25/1/16 30/1/16 28/1/16
f 12/1/16 11/1/16 23/1/16 28/1/16
f 11/1/16 43/1/16 31/1/16 7/1/16
f 44/1/16 12/1/16 10/1/16 34/1/16
f 12/1/16 44/1/16 43/1/16 11/1/16
f 52/1/3 53/1/3 37/1/3 33/1/3
f 48/1/3 52/1/3 33/1/3 9/1/3
f 32/1/3 36/1/3 54/1/3 51/1/3
f 13/1/3 15/1/3 20/1/3 19/1/3 6/1/3 45/1/3 46/1/3 5/1/3
f 52/1/3 51/1/3 54/1/3 53/1/3
f 48/1/3 47/1/3 51/1/3 52/1/3
f 53/1/6 54/1/6 49/1/6 50/1/6
f 47/1/13 46/1/13 45/1/13 48/1/13
f 6/1/13 8/1/13 47/1/13 45/1/13
f 35/1/16 31/1/16 43/1/16 49/1/16
f 49/1/16 43/1/16 44/1/16 50/1/16
f 40/1/17 56/1/17 55/1/17 39/1/17
f 39/1/18 55/1/18 57/1/18 41/1/18
f 41/1/19 57/1/19 58/1/19 42/1/19
f 42/1/20 58/1/20 56/1/20 40/1/20
f 42/1/21 62/1/21 61/1/21 41/1/21
f 39/1/22 59/1/22 60/1/22 40/1/22
f 40/1/23 60/1/23 62/1/23 42/1/23
f 41/1/24 61/1/24 59/1/24 39/1/24
f 65/1/25 66/1/25 70/1/25 69/1/25
f 64/1/26 63/1/26 67/1/26 68/1/26
f 66/1/3 64/1/3 68/1/3 70/1/3
f 63/1/16 65/1/16 69/1/16 67/1/16
f 101/1/27 78/1/27 77/1/27 99/1/27
f 59/1/22 96/1/22 97/1/22 60/1/22
f 99/1/28 77/1/28 75/1/28 95/1/28
f 88/1/29 92/1/29 73/1/29 71/1/29
f 92/1/30 94/1/30 74/1/30 73/1/30
f 94/1/31 89/1/31 72/1/31 74/1/31
f 69/1/32 70/1/32 93/1/32 91/1/32
f 68/1/33 67/1/33 87/1/33 90/1/33
f 70/1/34 68/1/34 90/1/34 93/1/34
f 67/1/35 69/1/35 91/1/35 87/1/35
f 60/1/36 97/1/36 102/1/36 62/1/36
f 98/1/37 76/1/37 78/1/37 101/1/37
f 62/1/21 102/1/21 100/1/21 61/1/21
f 61/1/38 100/1/38 96/1/38 59/1/38
f 74/1/39 72/1/39 85/1/39 80/1/39
f 71/1/40 73/1/40 81/1/40 83/1/40
f 72/1/41 71/1/41 83/1/41 85/1/41
f 74/1/42 80/1/42 81/1/42 73/1/42
f 84/1/43 82/1/43 75/1/43 77/1/43
f 86/1/44 84/1/44 77/1/44 78/1/44
f 79/1/45 76/1/45 75/1/45 82/1/45
f 86/1/46 79/1/46 80/1/46 85/1/46
f 84/1/47 86/1/47 85/1/47 83/1/47
f 82/1/48 84/1/48 83/1/48 81/1/48
f 79/1/49 82/1/49 81/1/49 80/1/49
f 79/1/50 86/1/50 78/1/50 76/1/50
f 88/1/51 89/1/51 90/1/51 87/1/51
f 92/1/52 88/1/52 87/1/52 91/1/52
f 94/1/53 92/1/53 91/1/53 93/1/53
f 89/1/54 94/1/54 93/1/54 90/1/54
f 89/1/55 88/1/55 71/1/55 72/1/55
f 96/1/56 95/1/56 98/1/56 97/1/56
f 95/1/57 96/1/57 100/1/57 99/1/57
f 99/1/58 100/1/58 102/1/58 101/1/58
f 101/1/59 102/1/59 97/1/59 98/1/59
f 95/1/60 75/1/60 76/1/60 98/1/60
o Vent_Up_Ring
v 0.000000 0.000000 -6.000000
v 0.000000 5.000000 -6.000000
v 4.242640 0.000000 -4.242640
v 4.242640 5.000000 -4.242640
v 6.000000 0.000000 0.000000
v 6.000000 5.000000 0.000000
v 4.242640 0.000000 4.242640
v 4.242640 5.000000 4.242640
v 0.000000 0.000000 6.000000
v 0.000000 5.000000 6.000000
v -4.242640 0.000000 4.242640
v -4.242640 5.000000 4.242640
v -6.000000 0.000000 0.000000
v -6.000000 5.000000 0.000000
v -4.242640 0.000000 -4.242640
v -4.242640 5.000000 -4.242640
v 0.691588 0.000000 -5.713530
v 3.551050 0.000000 -4.529110
v 3.551052 4.251430 -4.529106
v 0.691588 4.251430 -5.713535
vn -0.9239 -0.0000 0.3827
vn -0.9239 -0.0000 -0.3827
vn -0.3827 -0.0000 -0.9239
vn 0.3827 -0.0000 -0.9239
vn 0.9239 -0.0000 -0.3827
vn 0.9239 -0.0000 0.3827
vn 0.3827 -0.0000 0.9239
vn -0.3827 -0.0000 0.9239
vt 0.875000 0.500000
vt 0.750000 0.500000
vt 0.750000 1.000000
vt 0.875000 1.000000
vt 0.625000 0.500000
vt 0.625000 1.000000
vt 0.500000 0.500000
vt 0.500000 1.000000
vt 0.375000 0.500000
vt 0.375000 1.000000
vt 0.250000 0.500000
vt 0.250000 1.000000
vt 0.125000 0.500000
vt 0.125000 1.000000
vt 0.000000 0.500000
vt 0.000000 1.000000
vt 0.000000 0.000000
s 0
f 105/2/61 107/3/61 108/4/61 106/5/61
f 107/3/62 109/6/62 110/7/62 108/4/62
f 109/6/63 111/8/63 112/9/63 110/7/63
f 111/8/64 113/10/64 114/11/64 112/9/64
f 113/10/65 115/12/65 116/13/65 114/11/65
f 115/12/66 117/14/66 118/15/66 116/13/66
f 117/14/67 103/16/67 104/17/67 118/15/67
f 122/18/68 121/18/68 106/18/68 104/17/68
f 104/17/68 103/18/68 119/18/68 122/18/68
f 105/18/68 106/18/68 121/18/68 120/18/68
o Platform_Ring.001
v 0.000000 5.000956 -6.000000
v 0.000000 5.969201 -6.000000
v 4.242640 5.000956 -4.242640
v 4.242640 5.969201 -4.242640
v 6.000000 5.000956 0.000000
v 6.000000 5.969201 0.000000
v 4.242640 5.000956 4.242640
v 4.242640 5.969201 4.242640
v 0.000000 5.000956 6.000000
v 0.000000 5.969201 6.000000
v -4.242640 5.000956 4.242640
v -4.242640 5.969201 4.242640
v -6.000000 5.000956 0.000000
v -6.000000 5.969201 0.000000
v -4.242640 5.000956 -4.242640
v -4.242640 5.969201 -4.242640
vn -0.3827 -0.0000 0.9239
vn -0.9239 -0.0000 0.3827
vn -0.9239 -0.0000 -0.3827
vn -0.3827 -0.0000 -0.9239
vn 0.3827 -0.0000 -0.9239
vn 0.9239 -0.0000 -0.3827
vn 0.9239 -0.0000 0.3827
vn 0.3827 -0.0000 0.9239
vt 1.000000 0.500000
vt 0.875000 0.500000
vt 0.875000 1.000000
vt 1.000000 1.000000
vt 0.750000 0.500000
vt 0.750000 1.000000
vt 0.625000 0.500000
vt 0.625000 1.000000
vt 0.500000 0.500000
vt 0.500000 1.000000
vt 0.375000 0.500000
vt 0.375000 1.000000
vt 0.250000 0.500000
vt 0.250000 1.000000
vt 0.125000 0.500000
vt 0.125000 1.000000
vt 0.000000 0.500000
vt 0.000000 1.000000
s 0
f 123/19/69 125/20/69 126/21/69 124/22/69
f 125/20/70 127/23/70 128/24/70 126/21/70
f 127/23/71 129/25/71 130/26/71 128/24/71
f 129/25/72 131/27/72 132/28/72 130/26/72
f 131/27/73 133/29/73 134/30/73 132/28/73
f 133/29/74 135/31/74 136/32/74 134/30/74
f 135/31/75 137/33/75 138/34/75 136/32/75
f 137/33/76 123/35/76 124/36/76 138/34/76
o Vent_Up_Output
v 0.000000 -5.968195 -6.000000
v 0.000000 -0.968195 -6.000000
v 4.242640 -5.968195 -4.242640
v 4.242640 -0.968195 -4.242640
v 6.000000 -5.968195 0.000000
v 6.000000 -0.968195 -0.000000
v 4.242640 -5.968194 4.242640
v 4.242640 -0.968194 4.242640
v 0.000000 -5.968194 6.000000
v 0.000000 -0.968194 6.000000
v -4.242640 -5.968194 4.242640
v -4.242640 -0.968194 4.242640
v -6.000000 -5.968195 0.000000
v -6.000000 -0.968195 -0.000000
v -4.242640 -5.968195 -4.242640
v -4.242640 -0.968195 -4.242640
v -5.515196 -3.466538 -1.145958
v -5.515200 -1.437600 -1.145959
v -4.742051 -3.466538 -3.021384
v -4.742055 -1.437600 -3.021385
vn -0.3827 -0.0000 0.9239
vn -0.9239 -0.0000 0.3827
vn -0.9239 -0.0000 -0.3827
vn -0.3827 -0.0000 -0.9239
vn 0.3827 -0.0000 -0.9239
vn 0.9239 -0.0000 -0.3827
vn 0.3827 -0.0000 0.9239
vn 0.9238 0.0006 0.3829
vn 0.9239 0.0005 0.3827
vn 0.9239 0.0006 0.3826
vn 0.9240 0.0006 0.3825
vn 0.9233 0.0079 0.3839
vn 0.9236 0.0078 0.3833
vn 0.9241 0.0077 0.3821
vn 0.9244 0.0078 0.3814
vn 0.9238 0.0014 0.3828
vn 0.9239 0.0006 0.3827
vn 0.9239 0.0002 0.3827
vn 0.9239 0.0003 0.3827
vn 0.9239 0.0002 0.3825
vn 0.9239 0.0001 0.3826
vn 0.9239 0.0003 0.3826
vn 0.9240 0.0008 0.3824
vt 1.000000 0.500000
vt 0.875000 0.500000
vt 0.875000 1.000000
vt 1.000000 1.000000
vt 0.750000 0.500000
vt 0.750000 1.000000
vt 0.625000 0.500000
vt 0.625000 1.000000
vt 0.500000 0.500000
vt 0.500000 1.000000
vt 0.375000 0.500000
vt 0.375000 1.000000
vt 0.250000 0.500000
vt 0.250000 1.000000
vt 0.125000 0.500000
vt 0.000000 0.500000
vt 0.000000 1.000000
vt 0.125000 1.000000
vt 0.227417 0.582966
vt 0.147583 0.582966
vt 0.147583 0.917034
vt 0.227417 0.917034
s 0
f 139/37/77 141/38/77 142/39/77 140/40/77
f 141/38/78 143/41/78 144/42/78 142/39/78
f 143/41/79 145/43/79 146/44/79 144/42/79
f 145/43/80 147/45/80 148/46/80 146/44/80
f 147/45/81 149/47/81 150/48/81 148/46/81
f 149/47/82 151/49/82 152/50/82 150/48/82
f 153/51/83 139/52/83 140/53/83 154/54/83
f 155/55/84 151/49/85 153/51/86 157/56/87
f 158/57/88 154/54/89 152/50/90 156/58/91
f 156/58/92 152/50/93 151/49/94 155/55/95
f 157/56/96 153/51/97 154/54/98 158/57/99
o Platform_Ring
v 0.000000 -0.969570 -6.000000
v 0.000000 -0.001324 -6.000000
v 4.242640 -0.969570 -4.242640
v 4.242640 -0.001324 -4.242640
v 6.000000 -0.969570 0.000000
v 6.000000 -0.001324 0.000000
v 4.242640 -0.969570 4.242640
v 4.242640 -0.001324 4.242640
v 0.000000 -0.969570 6.000000
v 0.000000 -0.001324 6.000000
v -4.242640 -0.969570 4.242640
v -4.242640 -0.001324 4.242640
v -6.000000 -0.969570 0.000000
v -6.000000 -0.001324 0.000000
v -4.242640 -0.969570 -4.242640
v -4.242640 -0.001324 -4.242640
vn -0.3827 -0.0000 0.9239
vn -0.9239 -0.0000 0.3827
vn -0.9239 -0.0000 -0.3827
vn -0.3827 -0.0000 -0.9239
vn 0.3827 -0.0000 -0.9239
vn 0.9239 -0.0000 -0.3827
vn 0.9239 -0.0000 0.3827
vn 0.3827 -0.0000 0.9239
vt 1.000000 0.500000
vt 0.875000 0.500000
vt 0.875000 1.000000
vt 1.000000 1.000000
vt 0.750000 0.500000
vt 0.750000 1.000000
vt 0.625000 0.500000
vt 0.625000 1.000000
vt 0.500000 0.500000
vt 0.500000 1.000000
vt 0.375000 0.500000
vt 0.375000 1.000000
vt 0.250000 0.500000
vt 0.250000 1.000000
vt 0.125000 0.500000
vt 0.125000 1.000000
vt 0.000000 0.500000
vt 0.000000 1.000000
s 0
f 159/59/100 161/60/100 162/61/100 160/62/100
f 161/60/101 163/63/101 164/64/101 162/61/101
f 163/63/102 165/65/102 166/66/102 164/64/102
f 165/65/103 167/67/103 168/68/103 166/66/103
f 167/67/104 169/69/104 170/70/104 168/68/104
f 169/69/105 171/71/105 172/72/105 170/70/105
f 171/71/106 173/73/106 174/74/106 172/72/106
f 173/73/107 159/75/107 160/76/107 174/74/107
