# Blender 4.0.2
# www.blender.org
mtllib switch_Room_Vent_Up.mtl
o Switch_Room
v 0.691588 0.000000 -5.713530
v 3.551050 0.000000 -4.529110
v 3.551052 4.251430 -4.529106
v 0.691588 4.251430 -5.713535
v 4.992367 4.251430 -10.779523
v 1.897541 4.251428 -10.817543
v 1.149032 -0.000003 -10.826738
v 1.149027 4.999998 -10.826738
v 5.740880 5.000000 -10.770329
v 5.740884 0.000000 -10.770328
v 1.897547 -0.000003 -10.817539
v 4.992366 0.000000 -10.779528
v 4.910014 4.251431 -9.153460
v 4.320737 4.251431 -6.387284
v 3.542451 4.251430 -8.266233
v 4.816812 4.251431 -8.256679
v 4.601121 4.251431 -7.244188
v 1.461274 4.251430 -7.571712
v 1.962391 4.251429 -10.337573
v 3.340225 4.251430 -8.349998
v 1.729847 4.251430 -8.428576
v 1.913269 4.251429 -9.440951
v 1.962396 -0.000002 -10.337567
v 1.461276 -0.000001 -7.571707
v 1.913272 -0.000002 -9.440945
v 1.729850 -0.000001 -8.428570
v 4.320736 0.000001 -6.387288
v 4.910014 0.000001 -9.153463
v 4.601120 0.000001 -7.244192
v 4.816811 0.000001 -8.256682
v 1.156519 -0.000003 -11.436102
v 1.156514 4.999998 -11.436102
v 5.748367 4.999999 -11.379692
v 5.748371 0.000000 -11.379691
v 1.206710 -0.000004 -15.521172
v 1.206705 4.999997 -15.521172
v 5.798557 4.999998 -15.464762
v 5.798561 -0.000001 -15.464762
v -3.162477 0.752548 -12.066069
v -3.162480 2.781486 -12.066069
v -3.137555 0.752547 -14.094456
v -3.137558 2.781485 -14.094456
v 1.905033 -0.000003 -11.426903
v 4.999853 -0.000000 -11.388890
v 1.897541 4.251428 -10.817543
v 4.992367 4.251430 -10.779523
v 3.444954 4.999999 -10.798536
v 3.444954 4.999999 -10.798533
v 1.933947 -0.000003 -15.512238
v 5.071323 -0.000001 -15.473696
v 1.883752 4.999998 -11.427168
v 5.021129 4.999999 -11.388626
v 5.071320 4.999998 -15.473696
v 1.933943 4.999997 -15.512238
v -3.175110 -0.000007 -11.489322
v -3.175115 4.999994 -11.489322
v -3.124920 -0.000008 -15.574391
v -3.124924 4.999993 -15.574391
v -4.718883 0.793351 -12.066069
v -4.172698 2.747391 -12.066069
v -4.694882 0.786642 -14.094456
v -4.148696 2.740682 -14.094456
v -5.515196 8.470961 -1.145958
v -5.515200 10.499899 -1.145959
v -4.742051 8.470961 -3.021384
v -4.742055 10.499899 -3.021385
v -6.384671 8.470961 -1.491964
v -6.384675 10.499899 -1.491966
v -5.611526 8.470961 -3.367390
v -5.611530 10.499899 -3.367391
v -9.487401 4.954621 -9.378309
v -8.857931 6.813676 -9.892382
v -11.099897 5.165289 -10.590929
v -10.470428 7.024344 -11.105001
v -9.068006 6.425963 -6.941252
v -8.636053 8.401941 -7.100975
v -11.010350 6.880351 -6.572744
v -10.578397 8.856330 -6.732468
v -9.423811 5.523554 -12.864346
v -6.928411 3.776368 -14.134281
v -5.915322 3.600783 -12.246525
v -8.249368 5.654016 -11.122348
v -8.895808 3.787287 -10.670310
v -6.605696 1.740715 -12.031931
v -7.615027 1.912305 -13.870600
v -10.074294 3.661237 -12.418575
v -8.362625 8.920311 -6.000301
v -6.599920 10.131756 -3.850479
v -6.772116 8.086357 -3.851962
v -8.704834 6.929013 -5.883163
v -9.887472 9.411283 -4.855512
v -8.041697 10.130834 -2.562685
v -8.221054 8.104918 -2.552166
v -10.199389 7.418975 -4.745552
vn 0.9239 -0.0000 0.3827
vn -0.9987 -0.0000 -0.0506
vn -0.0000 -1.0000 -0.0000
vn -0.0000 1.0000 -0.0000
vn -0.9239 -0.0000 -0.3827
vn 0.9910 -0.0000 -0.1339
vn 0.0123 -0.0000 -0.9999
vn 0.9985 -0.0000 0.0547
vn 0.9840 -0.0000 0.1783
vn 0.9542 -0.0000 0.2991
vn -0.9946 -0.0000 -0.1034
vn -0.9781 -0.0000 -0.2084
vn -0.9504 -0.0000 -0.3110
vn 0.9999 -0.0000 0.0123
vn -0.9999 -0.0000 -0.0123
vn -0.0123 -0.0000 0.9999
vn -0.9998 -0.0000 -0.0219
vn -0.9999 0.0074 -0.0123
vn -1.0000 -0.0000 -0.0085
vn -0.9999 -0.0025 -0.0123
vn -0.0000 -0.0000 -1.0000
vn -0.0000 -0.0000 1.0000
vn -0.0370 0.9993 -0.0021
vn -0.0240 -0.9997 0.0014
vn -0.3697 -0.0000 0.9291
vn 0.3697 -0.0000 -0.9291
vn -0.0520 -0.0521 -0.9973
vn -0.3925 -0.9177 0.0609
vn 0.3872 0.9202 -0.0581
vn -0.4700 -0.7759 0.4208
vn 0.8335 -0.1473 0.5326
vn -0.0107 0.0596 0.9982
vn 0.4729 0.7718 -0.4251
vn 0.2622 0.8692 -0.4192
vn -0.2655 -0.8561 0.4435
vn -0.9629 0.2477 -0.1068
vn 0.9647 -0.2610 0.0344
vn 0.1921 -0.9722 0.1342
vn -0.4155 0.0172 0.9094
vn -0.1774 0.9755 -0.1299
vn 0.5245 -0.0254 -0.8510
vn 0.4670 -0.0094 0.8842
vn -0.4789 0.0047 -0.8778
vn -0.4883 -0.8240 0.2874
vn 0.4987 0.8167 -0.2904
vn -0.8078 0.1295 -0.5751
vn 0.9276 -0.1955 -0.3184
vn 0.0914 0.9242 -0.3709
vn -0.9613 0.2007 0.1885
vn 0.7734 -0.1133 -0.6238
vn -0.1006 0.9427 -0.3182
vn 0.1080 -0.9408 0.3212
vn -0.7760 0.1166 0.6198
vn -0.0936 -0.9266 0.3643
vt 0.000000 0.000000
s 0
f 4/1/1 1/1/1 24/1/1 18/1/1
f 28/1/2 13/1/2 5/1/2 12/1/2
f 3/1/3 4/1/3 18/1/3 20/1/3 15/1/3 14/1/3
f 8/1/4 47/1/4 51/1/4 32/1/4
f 2/1/5 3/1/5 14/1/5 27/1/5
f 19/1/6 23/1/6 11/1/6 6/1/6
f 13/1/3 16/1/3 15/1/3
f 16/1/3 17/1/3 15/1/3
f 17/1/3 14/1/3 15/1/3
f 18/1/3 21/1/3 20/1/3
f 21/1/3 22/1/3 20/1/3
f 22/1/3 19/1/3 20/1/3
f 35/1/7 36/1/7 54/1/7 49/1/7
f 23/1/8 19/1/8 22/1/8 25/1/8
f 25/1/9 22/1/9 21/1/9 26/1/9
f 26/1/10 21/1/10 18/1/10 24/1/10
f 13/1/11 28/1/11 30/1/11 16/1/11
f 16/1/12 30/1/12 29/1/12 17/1/12
f 17/1/13 29/1/13 27/1/13 14/1/13
f 46/1/7 48/1/7 9/1/7 5/1/7
f 33/1/14 34/1/14 38/1/14 37/1/14
f 50/1/7 53/1/7 37/1/7 38/1/7
f 7/1/15 8/1/15 32/1/15 31/1/15
f 8/1/16 7/1/16 11/1/16 6/1/16
f 10/1/16 9/1/16 5/1/16 12/1/16
f 9/1/14 10/1/14 34/1/14 33/1/14
f 38/1/3 34/1/3 44/1/3 50/1/3
f 35/1/3 31/1/3 55/1/3 57/1/3
f 36/1/7 35/1/7 57/1/7 58/1/7
f 32/1/4 36/1/4 58/1/4 56/1/4
f 31/1/16 32/1/16 56/1/16 55/1/16
f 27/1/4 24/1/4 1/1/4 2/1/4
f 26/1/4 24/1/4 27/1/4 29/1/4
f 25/1/4 26/1/4 29/1/4 30/1/4
f 23/1/4 25/1/4 30/1/4 28/1/4
f 12/1/4 11/1/4 23/1/4 28/1/4
f 11/1/3 7/1/3 31/1/3 43/1/3
f 44/1/3 34/1/3 10/1/3 12/1/3
f 12/1/4 44/1/4 43/1/4 11/1/4
f 52/1/4 33/1/4 37/1/4 53/1/4
f 48/1/4 9/1/4 33/1/4 52/1/4
f 32/1/4 51/1/4 54/1/4 36/1/4
f 13/1/3 15/1/3 20/1/3 19/1/3 6/1/3 45/1/3 46/1/3 5/1/3
f 52/1/4 53/1/4 54/1/4 51/1/4
f 48/1/4 52/1/4 51/1/4 47/1/4
f 53/1/7 50/1/7 49/1/7 54/1/7
f 47/1/7 46/1/7 45/1/7 48/1/7
f 6/1/7 8/1/7 47/1/7 45/1/7
f 35/1/3 49/1/3 43/1/3 31/1/3
f 49/1/3 50/1/3 44/1/3 43/1/3
f 40/1/17 39/1/17 55/1/17 56/1/17
f 39/1/18 41/1/18 57/1/18 55/1/18
f 41/1/19 42/1/19 58/1/19 57/1/19
f 42/1/20 40/1/20 56/1/20 58/1/20
f 42/1/21 41/1/21 61/1/21 62/1/21
f 39/1/22 40/1/22 60/1/22 59/1/22
f 40/1/23 42/1/23 62/1/23 60/1/23
f 41/1/24 39/1/24 59/1/24 61/1/24
f 65/1/25 66/1/25 70/1/25 69/1/25
f 64/1/26 63/1/26 67/1/26 68/1/26
f 66/1/3 64/1/3 68/1/3 70/1/3
f 63/1/4 65/1/4 69/1/4 67/1/4
f 62/1/27 61/1/27 85/1/27 80/1/27
f 61/1/28 59/1/28 84/1/28 85/1/28
f 60/1/29 62/1/29 80/1/29 81/1/29
f 86/1/30 83/1/30 71/1/30 73/1/30
f 83/1/31 82/1/31 72/1/31 71/1/31
f 59/1/32 60/1/32 81/1/32 84/1/32
f 82/1/33 79/1/33 74/1/33 72/1/33
f 72/1/34 74/1/34 78/1/34 76/1/34
f 73/1/35 71/1/35 75/1/35 77/1/35
f 74/1/36 73/1/36 77/1/36 78/1/36
f 71/1/37 72/1/37 76/1/37 75/1/37
f 70/1/38 68/1/38 92/1/38 88/1/38
f 70/1/39 88/1/39 89/1/39 69/1/39
f 67/1/40 69/1/40 89/1/40 93/1/40
f 68/1/41 67/1/41 93/1/41 92/1/41
f 82/1/42 83/1/42 84/1/42 81/1/42
f 86/1/43 79/1/43 80/1/43 85/1/43
f 83/1/44 86/1/44 85/1/44 84/1/44
f 79/1/45 82/1/45 81/1/45 80/1/45
f 79/1/46 86/1/46 73/1/46 74/1/46
f 91/1/47 94/1/47 77/1/47 78/1/47
f 94/1/48 90/1/48 75/1/48 77/1/48
f 87/1/49 76/1/49 75/1/49 90/1/49
f 94/1/50 91/1/50 92/1/50 93/1/50
f 90/1/51 94/1/51 93/1/51 89/1/51
f 91/1/52 87/1/52 88/1/52 92/1/52
f 87/1/53 90/1/53 89/1/53 88/1/53
f 87/1/54 91/1/54 78/1/54 76/1/54
o Vent_Up_Ring
v 0.000000 0.000000 -6.000000
v 0.000000 5.000000 -6.000000
v 4.242640 0.000000 -4.242640
v 4.242640 5.000000 -4.242640
v 6.000000 0.000000 0.000000
v 6.000000 5.000000 0.000000
v 4.242640 0.000000 4.242640
v 4.242640 5.000000 4.242640
v 0.000000 0.000000 6.000000
v 0.000000 5.000000 6.000000
v -4.242640 0.000000 4.242640
v -4.242640 5.000000 4.242640
v -6.000000 0.000000 0.000000
v -6.000000 5.000000 0.000000
v -4.242640 0.000000 -4.242640
v -4.242640 5.000000 -4.242640
v 0.691588 0.000000 -5.713530
v 3.551050 0.000000 -4.529110
v 3.551052 4.251430 -4.529106
v 0.691588 4.251430 -5.713535
vn 0.9239 -0.0000 -0.3827
vn 0.9239 -0.0000 0.3827
vn 0.3827 -0.0000 0.9239
vn -0.3827 -0.0000 0.9239
vn -0.9239 -0.0000 0.3827
vn -0.9239 -0.0000 -0.3827
vn -0.3827 -0.0000 -0.9239
vn 0.3827 -0.0000 -0.9239
vt 0.875000 0.500000
vt 0.875000 1.000000
vt 0.750000 1.000000
vt 0.750000 0.500000
vt 0.625000 1.000000
vt 0.625000 0.500000
vt 0.500000 1.000000
vt 0.500000 0.500000
vt 0.375000 1.000000
vt 0.375000 0.500000
vt 0.250000 1.000000
vt 0.250000 0.500000
vt 0.125000 1.000000
vt 0.125000 0.500000
vt 0.000000 1.000000
vt 0.000000 0.500000
vt 0.000000 0.000000
s 0
f 97/2/55 98/3/55 100/4/55 99/5/55
f 99/5/56 100/4/56 102/6/56 101/7/56
f 101/7/57 102/6/57 104/8/57 103/9/57
f 103/9/58 104/8/58 106/10/58 105/11/58
f 105/11/59 106/10/59 108/12/59 107/13/59
f 107/13/60 108/12/60 110/14/60 109/15/60
f 109/15/61 110/14/61 96/16/61 95/17/61
f 114/18/58 113/18/58 98/18/58 96/16/58
f 96/16/62 114/18/62 111/18/62 95/18/62
f 97/18/62 112/18/62 113/18/62 98/18/62
o Platform_Ring.001
v 0.000000 5.000956 -6.000000
v 0.000000 5.969201 -6.000000
v 4.242640 5.000956 -4.242640
v 4.242640 5.969201 -4.242640
v 6.000000 5.000956 0.000000
v 6.000000 5.969201 0.000000
v 4.242640 5.000956 4.242640
v 4.242640 5.969201 4.242640
v 0.000000 5.000956 6.000000
v 0.000000 5.969201 6.000000
v -4.242640 5.000956 4.242640
v -4.242640 5.969201 4.242640
v -6.000000 5.000956 0.000000
v -6.000000 5.969201 0.000000
v -4.242640 5.000956 -4.242640
v -4.242640 5.969201 -4.242640
vn 0.3827 -0.0000 -0.9239
vn 0.9239 -0.0000 -0.3827
vn 0.9239 -0.0000 0.3827
vn 0.3827 -0.0000 0.9239
vn -0.3827 -0.0000 0.9239
vn -0.9239 -0.0000 0.3827
vn -0.9239 -0.0000 -0.3827
vn -0.3827 -0.0000 -0.9239
vt 1.000000 0.500000
vt 1.000000 1.000000
vt 0.875000 1.000000
vt 0.875000 0.500000
vt 0.750000 1.000000
vt 0.750000 0.500000
vt 0.625000 1.000000
vt 0.625000 0.500000
vt 0.500000 1.000000
vt 0.500000 0.500000
vt 0.375000 1.000000
vt 0.375000 0.500000
vt 0.250000 1.000000
vt 0.250000 0.500000
vt 0.125000 1.000000
vt 0.125000 0.500000
vt 0.000000 1.000000
vt 0.000000 0.500000
s 0
f 115/19/63 116/20/63 118/21/63 117/22/63
f 117/22/64 118/21/64 120/23/64 119/24/64
f 119/24/65 120/23/65 122/25/65 121/26/65
f 121/26/66 122/25/66 124/27/66 123/28/66
f 123/28/67 124/27/67 126/29/67 125/30/67
f 125/30/68 126/29/68 128/31/68 127/32/68
f 127/32/69 128/31/69 130/33/69 129/34/69
f 129/34/70 130/33/70 116/35/70 115/36/70
o Vent_Up_Output
v 0.000000 5.969304 -6.000000
v 0.000000 10.969303 -6.000000
v 4.242640 5.969304 -4.242640
v 4.242640 10.969303 -4.242640
v 6.000000 5.969304 0.000000
v 6.000000 10.969304 -0.000000
v 4.242640 5.969305 4.242640
v 4.242640 10.969305 4.242640
v 0.000000 5.969305 6.000000
v 0.000000 10.969305 6.000000
v -4.242640 5.969305 4.242640
v -4.242640 10.969305 4.242640
v -6.000000 5.969304 0.000000
v -6.000000 10.969304 -0.000000
v -4.242640 5.969304 -4.242640
v -4.242640 10.969303 -4.242640
v -5.515196 8.470961 -1.145958
v -5.515200 10.499899 -1.145959
v -4.742051 8.470961 -3.021384
v -4.742055 10.499899 -3.021385
vn 0.3827 -0.0000 -0.9239
vn 0.9239 -0.0000 -0.3827
vn 0.9239 -0.0000 0.3827
vn 0.3827 -0.0000 0.9239
vn -0.3827 -0.0000 0.9239
vn -0.9239 -0.0000 0.3827
vn -0.3827 -0.0000 -0.9239
vn -0.9238 -0.0005 -0.3828
vn -0.9240 -0.0006 -0.3825
vn -0.9239 -0.0006 -0.3826
vn -0.9239 -0.0005 -0.3827
vn -0.9233 -0.0079 -0.3839
vn -0.9244 -0.0078 -0.3814
vn -0.9241 -0.0077 -0.3821
vn -0.9236 -0.0078 -0.3833
vn -0.9238 -0.0014 -0.3828
vn -0.9239 -0.0003 -0.3827
vn -0.9239 -0.0002 -0.3827
vn -0.9239 -0.0006 -0.3827
vn -0.9239 -0.0002 -0.3825
vn -0.9240 -0.0008 -0.3825
vn -0.9239 -0.0003 -0.3826
vn -0.9239 -0.0001 -0.3826
vt 1.000000 0.500000
vt 1.000000 1.000000
vt 0.875000 1.000000
vt 0.875000 0.500000
vt 0.750000 1.000000
vt 0.750000 0.500000
vt 0.625000 1.000000
vt 0.625000 0.500000
vt 0.500000 1.000000
vt 0.500000 0.500000
vt 0.375000 1.000000
vt 0.375000 0.500000
vt 0.250000 1.000000
vt 0.250000 0.500000
vt 0.125000 0.500000
vt 0.125000 1.000000
vt 0.000000 1.000000
vt 0.000000 0.500000
vt 0.227417 0.582966
vt 0.147583 0.582966
vt 0.147583 0.917034
vt 0.227417 0.917034
s 0
f 131/37/71 132/38/71 134/39/71 133/40/71
f 133/40/72 134/39/72 136/41/72 135/42/72
f 135/42/73 136/41/73 138/43/73 137/44/73
f 137/44/74 138/43/74 140/45/74 139/46/74
f 139/46/75 140/45/75 142/47/75 141/48/75
f 141/48/76 142/47/76 144/49/76 143/50/76
f 145/51/77 146/52/77 132/53/77 131/54/77
f 147/55/78 149/56/79 145/51/80 143/50/81
f 150/57/82 148/58/83 144/49/84 146/52/85
f 148/58/86 147/55/87 143/50/88 144/49/89
f 149/56/90 150/57/91 146/52/92 145/51/93
o Platform_Ring
v 0.000000 10.967930 -6.000000
v 0.000000 11.936174 -6.000000
v 4.242640 10.967930 -4.242640
v 4.242640 11.936174 -4.242640
v 6.000000 10.967930 0.000000
v 6.000000 11.936174 0.000000
v 4.242640 10.967930 4.242640
v 4.242640 11.936174 4.242640
v 0.000000 10.967930 6.000000
v 0.000000 11.936174 6.000000
v -4.242640 10.967930 4.242640
v -4.242640 11.936174 4.242640
v -6.000000 10.967930 0.000000
v -6.000000 11.936174 0.000000
v -4.242640 10.967930 -4.242640
v -4.242640 11.936174 -4.242640
vn 0.3827 -0.0000 -0.9239
vn 0.9239 -0.0000 -0.3827
vn 0.9239 -0.0000 0.3827
vn 0.3827 -0.0000 0.9239
vn -0.3827 -0.0000 0.9239
vn -0.9239 -0.0000 0.3827
vn -0.9239 -0.0000 -0.3827
vn -0.3827 -0.0000 -0.9239
vt 1.000000 0.500000
vt 1.000000 1.000000
vt 0.875000 1.000000
vt 0.875000 0.500000
vt 0.750000 1.000000
vt 0.750000 0.500000
vt 0.625000 1.000000
vt 0.625000 0.500000
vt 0.500000 1.000000
vt 0.500000 0.500000
vt 0.375000 1.000000
vt 0.375000 0.500000
vt 0.250000 1.000000
vt 0.250000 0.500000
vt 0.125000 1.000000
vt 0.125000 0.500000
vt 0.000000 1.000000
vt 0.000000 0.500000
s 0
f 151/59/94 152/60/94 154/61/94 153/62/94
f 153/62/95 154/61/95 156/63/95 155/64/95
f 155/64/96 156/63/96 158/65/96 157/66/96
f 157/66/97 158/65/97 160/67/97 159/68/97
f 159/68/98 160/67/98 162/69/98 161/70/98
f 161/70/99 162/69/99 164/71/99 163/72/99
f 163/72/100 164/71/100 166/73/100 165/74/100
f 165/74/101 166/73/101 152/75/101 151/76/101
